<svg width="71" height="72" viewBox="0 0 71 72" fill="none" xmlns="http://www.w3.org/2000/svg">
<path d="M67.6573 50.8673H55.0164C58.2242 46.7034 60.1562 41.5 60.1562 35.832C60.1562 30.164 58.218 24.9485 55.0041 20.7846H67.6512C69.7917 25.352 71 30.4514 71 35.832C71 41.2127 69.7979 46.2998 67.6573 50.8673ZM35.4939 50.8673C27.1831 50.8673 20.4487 44.1353 20.4487 35.8259C20.4487 27.5165 27.1831 20.7846 35.4939 20.7846C43.8046 20.7846 50.539 27.5226 50.539 35.8259C50.539 44.1292 43.8046 50.8673 35.4939 50.8673ZM10.8193 35.832C10.8193 49.4548 21.8594 60.5035 35.4877 60.5035C39.1432 60.5035 42.6025 59.6842 45.7243 58.2595V69.8279C42.4859 70.8001 39.0512 71.332 35.4939 71.332C15.8916 71.332 0 55.4408 0 35.832C0 16.2233 15.8916 0.332031 35.5 0.332031C39.0574 0.332031 42.4859 0.863981 45.7305 1.83616V13.4045C42.6086 11.9799 39.1494 11.1606 35.4939 11.1606C21.8716 11.1606 10.8254 22.2031 10.8254 35.832H10.8193Z" fill="#FFFF"/>
</svg>
