<svg height="24" width="24" xmlns="http://www.w3.org/2000/svg"><g transform="translate(0 -1028.4)"><path d="m4 1033.4v15c0 1.1.8954 2 2 2h10c1.105 0 2-.9 2-2v-15z" fill="#f1c40f"/><path d="m4 2v1.0312 1.9688 2 13c0 1.105.8954 2 2 2h10c1.105 0 2-.895 2-2v-15-3h-1v5 13c0 .552-.448 1-1 1h-10c-.5523 0-1-.448-1-1v-13-2-1.9688-1.0312z" fill="#bdc3c7" transform="translate(0 1028.4)"/><path d="m18 1034.4v.7.3 1h1c.552 0 1 .4 1 1v3 3c0 .5-.448 1-1 1h-1v1 .2.8h2c1.105 0 2-.9 2-2v-2-2-2-2c0-1.1-.895-2-2-2z" fill="#ecf0f1"/><path d="m19 1034.4c1.105 0 2 .9 2 2v2 2 2 2c0 1.1-.895 2-2 2h1c1.105 0 2-.9 2-2v-2-2-2-2c0-1.1-.895-2-2-2z" fill="#bdc3c7"/><path d="m4 1047.4v1c0 1.1.8954 2 2 2h10c1.105 0 2-.9 2-2v-1c0 1.1-.895 2-2 2h-10c-1.1046 0-2-.9-2-2z" fill="#95a5a6"/><path d="m7 1035.4c-.5523 0-1 .4-1 1v11c0 .5.4477 1 1 1v-1-11zm4 0c-.552 0-1 .4-1 1v11c0 .5.448 1 1 1v-1-11zm4 0c-.552 0-1 .4-1 1v11c0 .5.448 1 1 1v-1-11z" fill="#f39c12"/><g fill="#ecf0f1"><path d="m5 1031.4v.3 1.7 2.4c.2125.1.4599.2.7188.2.7007 0 1.2727-.5 1.4374-1.2.1722.1.3658.2.5626.2.1829 0 .3691-.1.5312-.1-.0035 0-.0312 0-.0312.1 0 .5.4477 1 1 1 .2515 0 .4805-.1.6562-.3.239.2.533.3.844.3.666 0 1.21-.5 1.406-1.1.034 0 .059.1.094.1.552 0 1-.5 1-1 0 .5.447 1 1 1 .552 0 1-.5 1-1h.093c.204.5.751 1 1.407 1 .098 0 .189-.1.281-.1v-1.5-1.7-.3z"/><path d="m5 1033.4v15c0 .5.4477 1 1 1h10c.552 0 1-.5 1-1v-15h-1v15h-10v-15z"/></g></g></svg>