<svg viewBox="0 0 34 34" fill="none" xmlns="http://www.w3.org/2000/svg" class="me-1">
  <path d="M5.18119 17.0063C5.18119 23.5278 10.4698 28.8206 16.9905 28.8206C18.7408 28.8206 20.3962 28.43 21.8937 27.7431V33.2817C20.3393 33.748 18.6965 34 16.9968 34C7.60751 34 0 26.3884 0 17C0 7.61156 7.61383 0 16.9968 0C18.7028 0 20.3457 0.252038 21.8937 0.71831V6.25686C20.3962 5.57635 18.7408 5.17939 16.9905 5.17939C10.4698 5.19199 5.18119 10.4848 5.18119 17.0063ZM16.9968 24.2083C13.0162 24.2083 9.79372 20.9822 9.79372 17.0063C9.79372 13.0304 13.0162 9.8043 16.9968 9.8043C20.9775 9.8043 24.2 13.0304 24.2 17.0063C24.2 20.9822 20.9712 24.2083 16.9968 24.2083ZM32.3951 24.2083H26.3419C27.8773 22.2172 28.8062 19.722 28.8062 17.0126C28.8062 14.2969 27.8773 11.8017 26.3419 9.8043H32.3951C33.4187 11.9907 34 14.4355 34 17.0126C33.9937 19.5834 33.4187 22.0219 32.3951 24.2083Z" fill="black"></path>
</svg>
