<svg width="76" height="76" viewBox="0 0 76 76" fill="none" xmlns="http://www.w3.org/2000/svg">
<circle cx="37.7777" cy="38" r="37.3333" fill="#2B333A"/>
<rect width="33.1852" height="33.1852" transform="translate(21.1851 21.409)" fill="#2B333A"/>
<path d="M45.7242 38.1995C45.7242 42.4793 42.2547 45.9488 37.9749 45.9488C33.6951 45.9488 30.2256 42.4793 30.2256 38.1995C30.2256 33.9197 33.6951 30.4502 37.9749 30.4502C42.2547 30.4502 45.7242 33.9197 45.7242 38.1995Z" fill="#60A0AC"/>
<path fill-rule="evenodd" clip-rule="evenodd" d="M37.9752 21.409C39.5257 21.409 41.0272 21.6192 42.4526 22.0126V25.5314C41.0522 25.0364 39.5451 24.7671 37.9752 24.7671C30.5568 24.7671 24.5431 30.7808 24.5431 38.1992C24.5431 45.6175 30.5568 51.6313 37.9752 51.6313C39.5451 51.6313 41.0522 51.3619 42.4526 50.8669V54.3857C41.0272 54.7791 39.5257 54.9893 37.9752 54.9893C28.7023 54.9893 21.1851 47.4721 21.1851 38.1992C21.1851 28.9262 28.7023 21.409 37.9752 21.409ZM52.8287 46.0345C54.0652 43.6954 54.7653 41.0291 54.7653 38.1992C54.7653 35.3693 54.0652 32.7029 52.8287 30.3638H48.8864C50.4729 32.5691 51.4073 35.275 51.4073 38.1992C51.4073 41.1233 50.4729 43.8292 48.8864 46.0345H52.8287Z" fill="#60A0AC"/>
</svg>
