<svg width="122" height="122" viewBox="0 0 122 122" fill="none" xmlns="http://www.w3.org/2000/svg">
<path d="M88.7354 60.7157C88.7354 76.1918 76.1895 88.7376 60.7134 88.7376C45.2373 88.7376 32.6914 76.1918 32.6914 60.7157C32.6914 45.2396 45.2373 32.6937 60.7134 32.6937C76.1895 32.6937 88.7354 45.2396 88.7354 60.7157Z" fill="white"/>
<path fill-rule="evenodd" clip-rule="evenodd" d="M60.7143 0C66.3211 0 71.7505 0.760016 76.9049 2.18265V14.9067C71.8408 13.1168 66.3913 12.1429 60.7143 12.1429C33.889 12.1429 12.1429 33.889 12.1429 60.7143C12.1429 87.5396 33.889 109.286 60.7143 109.286C66.3913 109.286 71.8408 108.312 76.9049 106.522V119.246C71.7505 120.669 66.3211 121.429 60.7143 121.429C27.1827 121.429 0 94.2459 0 60.7143C0 27.1827 27.1827 0 60.7143 0ZM114.426 89.0476C118.897 80.5892 121.429 70.9474 121.429 60.7143C121.429 50.4812 118.897 40.8393 114.426 32.381H100.17C105.907 40.3557 109.286 50.1404 109.286 60.7143C109.286 71.2882 105.907 81.0729 100.17 89.0476H114.426Z" fill="white"/>
</svg>
