<svg width="28" height="28" viewBox="0 0 28 28" fill="none" xmlns="http://www.w3.org/2000/svg">
<rect width="28" height="28" rx="14" fill="#E6F6E7"/>
<path d="M18.6155 14.0001C18.6155 16.5491 16.5492 18.6155 14.0002 18.6155C11.4511 18.6155 9.38477 16.5491 9.38477 14.0001C9.38477 11.4511 11.4511 9.38469 14.0002 9.38469C16.5492 9.38469 18.6155 11.4511 18.6155 14.0001Z" fill="#1C3140"/>
<path fill-rule="evenodd" clip-rule="evenodd" d="M14 4C14.9235 4 15.8177 4.12518 16.6667 4.35949V6.45522C15.8326 6.16041 14.935 6 14 6C9.58172 6 6 9.58172 6 14C6 18.4183 9.58172 22 14 22C14.935 22 15.8326 21.8396 16.6667 21.5448V23.6405C15.8177 23.8748 14.9235 24 14 24C8.47715 24 4 19.5228 4 14C4 8.47715 8.47715 4 14 4ZM22.8466 18.6667C23.583 17.2735 24 15.6855 24 14C24 12.3145 23.583 10.7265 22.8466 9.33333H20.4986C21.4435 10.6468 22 12.2584 22 14C22 15.7416 21.4435 17.3532 20.4986 18.6667H22.8466Z" fill="#1C3140"/>
</svg>
