<svg width="12" height="13" viewBox="0 0 12 13" fill="none" xmlns="http://www.w3.org/2000/svg">
<path d="M11.2675 6.71376C11.2675 7.1047 11.1736 7.46724 10.9857 7.79921C10.7979 8.13117 10.5468 8.39107 10.2301 8.57234C10.2388 8.63131 10.2432 8.72303 10.2432 8.84752C10.2432 9.43938 10.0444 9.9417 9.65132 10.3567C9.25602 10.7738 8.77991 10.9813 8.22299 10.9813C7.97402 10.9813 7.73596 10.9354 7.51101 10.8437C7.33629 11.2019 7.08513 11.4901 6.75535 11.7107C6.42775 11.9335 6.06739 12.0427 5.67646 12.0427C5.27679 12.0427 4.91425 11.9357 4.59102 11.7173C4.2656 11.5011 4.01663 11.2106 3.84191 10.8437C3.61696 10.9354 3.38109 10.9813 3.12993 10.9813C2.57301 10.9813 2.09472 10.7738 1.69505 10.3567C1.29538 9.9417 1.09664 9.4372 1.09664 8.84752C1.09664 8.782 1.10537 8.69027 1.12066 8.57234C0.803981 8.38888 0.552823 8.13117 0.365 7.79921C0.179361 7.46724 0.0854492 7.1047 0.0854492 6.71376C0.0854492 6.29881 0.190281 5.91661 0.39776 5.57154C0.605238 5.22647 0.884789 4.97094 1.23423 4.80496C1.1425 4.55598 1.09664 4.30482 1.09664 4.05585C1.09664 3.46617 1.29538 2.96167 1.69505 2.54671C2.09472 2.13176 2.57301 1.92209 3.12993 1.92209C3.3789 1.92209 3.61696 1.96796 3.84191 2.05968C4.01663 1.70151 4.26779 1.41322 4.59757 1.19264C4.92517 0.972057 5.28553 0.860674 5.67646 0.860674C6.06739 0.860674 6.42775 0.972057 6.75535 1.19046C7.08295 1.41104 7.33629 1.69933 7.51101 2.0575C7.73596 1.96577 7.97183 1.91991 8.22299 1.91991C8.77991 1.91991 9.25602 2.12739 9.65132 2.54453C10.0466 2.96167 10.2432 3.46399 10.2432 4.05367C10.2432 4.32885 10.2017 4.57782 10.1187 4.80277C10.4681 4.96876 10.7477 5.22428 10.9552 5.56935C11.1626 5.91661 11.2675 6.29881 11.2675 6.71376ZM5.43841 8.39762L7.74688 4.94036C7.80585 4.84864 7.82332 4.74817 7.80367 4.64116C7.78183 4.53414 7.72723 4.44897 7.6355 4.39218C7.54377 4.33322 7.44331 4.31356 7.33629 4.32885C7.22709 4.34632 7.13973 4.39874 7.07421 4.49046L5.04092 7.54805L4.10399 6.6133C4.021 6.53031 3.9249 6.491 3.81789 6.49536C3.70869 6.49973 3.61477 6.53904 3.53178 6.6133C3.45753 6.68756 3.4204 6.78147 3.4204 6.89503C3.4204 7.00642 3.45753 7.10033 3.53178 7.17677L4.81815 8.46314L4.88149 8.51337C4.95574 8.5636 5.03218 8.58763 5.10644 8.58763C5.25277 8.58544 5.36415 8.52429 5.43841 8.39762Z" fill="#1DA1F2"/>
</svg>
